<?xml version="1.0" encoding="UTF-8"?>
<svg width="1000" height="1000" viewBox="0 0 1000 1000" xmlns="http://www.w3.org/2000/svg">
  <title>Codex 144:99 -- Φ Spiral (Clean Plate)</title>
  <desc>Golden (Fibonacci) quarter‑arc spiral for composition flow. Clean plate: no construction guides; faint tracery.</desc>
  <metadata>
    { "project":"Cathedral of Circuits / Codex 144:99",
      "role":"geometry_scaffold",
      "style":"thin tracery, rounded joins",
      "notes":"Use as a subtle flow guide; keep beneath paint layer; never the brightest element." }
  </metadata>
  <defs>
    <style type="text/css"><![CDATA[
      .g { fill: none; stroke: #222; stroke-opacity: 0.18; stroke-linecap: round; stroke-linejoin: round }
      .b { stroke-opacity: 0.28 }
      .r { stroke-opacity: 0.10 }
    ]]></style>
  </defs>

  <!-- frame ring (very faint) -->
  <circle class="g r" cx="500" cy="500" r="480"/>

  <!-- clean spiral path
       Note: composed of stitched quarter‑arcs with Fibonacci-like radii.
       The path is continuous and smooth; no square guides are rendered. -->
  <path class="g b" d="
    M 650 960
    A 610 610 0 0 1 650 350
    A 377 377 0 0 1 273 350
    A 233 233 0 0 1 273 117
    A 144 144 0 0 1 417 117
    A 89  89  0 0 1 506 206
    A 55  55  0 0 1 451 261
    A 34  34  0 0 1 417 227
    A 21  21  0 0 1 438 206
  "/>

  <!-- monad dot -->
  <circle class="g" cx="500" cy="500" r="6"/>
</svg>