<?xml version="1.0" encoding="UTF-8"?>
<svg width="1000" height="1000" viewBox="0 0 1000 1000" xmlns="http://www.w3.org/2000/svg">
  <title>Codex 144:99 -- Φ Spiral (Atelier Source)</title>
  <desc>Fibonacci square scaffold + stitched quarter‑arcs. Keep this for workshop proofs; use phi-spiral.svg for public plates.</desc>
  <metadata>
    { "role":"geometry_scaffold_src",
      "status":"canon",
      "sequence":"610,377,233,144,89,55,34,21",
      "notes":"Rings and squares are faint; arcs are the composition flow. You can adjust starting scale to fit plate." }
  </metadata>
  <defs>
    <style type="text/css"><![CDATA[
      .g { fill: none; stroke: #222; stroke-linecap: round; stroke-linejoin: round }
      .r { stroke-opacity: 0.10 }
      .m { stroke-opacity: 0.18 }
      .b { stroke-opacity: 0.28 }
      .d { stroke-dasharray: 6 8; stroke-opacity: 0.22 }
    ]]></style>
  </defs>

  <!-- atelier frame -->
  <rect class="g r" x="40" y="40" width="920" height="920" rx="8"/>
  <circle class="g r" cx="500" cy="500" r="480"/>

  <!-- Fibonacci squares (light guides only; proportions matched to the spiral below) -->
  <!-- 610 bottom-left -->
  <rect class="g d" x="40" y="350" width="610" height="610"/>
  <!-- 377 above -->
  <rect class="g d" x="273" y="40" width="377" height="377"/>
  <!-- 233 top-right -->
  <rect class="g d" x="650" y="184" width="233" height="233"/>
  <!-- 144 right column -->
  <rect class="g d" x="883" y="350" width="144" height="144"/>
  <!-- 89 lower-right -->
  <rect class="g d" x="794" y="494" width="89" height="89"/>
  <!-- 55 lower band -->
  <rect class="g d" x="739" y="583" width="55" height="55"/>
  <!-- 34 near center -->
  <rect class="g d" x="705" y="617" width="34" height="34"/>
  <!-- 21 inner -->
  <rect class="g d" x="705" y="596" width="21" height="21"/>

  <!-- stitched quarter‑arc spiral (production geometry; mirrors clean plate) -->
  <path class="g b" d="
    M 650 960
    A 610 610 0 0 1 650 350
    A 377 377 0 0 1 273 350
    A 233 233 0 0 1 273 117
    A 144 144 0 0 1 417 117
    A 89  89  0 0 1 506 206
    A 55  55  0 0 1 451 261
    A 34  34  0 0 1 417 227
    A 21  21  0 0 1 438 206
  "/>

  <!-- crosshair & monad (atelier marks) -->
  <line class="g r" x1="500" y1="60" x2="500" y2="940"/>
  <line class="g r" x1="60" y1="500" x2="940" y2="500"/>
  <circle class="g m" cx="500" cy="500" r="6"/>
</svg>