<?xml version="1.0" encoding="UTF-8"?>
<svg width="1000" height="1000" viewBox="0 0 1000 1000" xmlns="http://www.w3.org/2000/svg">
  <title>Codex 144:99 -- Rose Window (12-spoke)</title>
  <desc>Concentric rings with 12 radial spokes for cathedral rose lattice. Use as faint tracery behind titles or halos.</desc>
  <metadata>{ "role":"geometry_scaffold", "spokes":12, "rings":[120,200,280,360,440,480] }</metadata>
  <defs>
    <style type="text/css"><![CDATA[
      .g { fill: none; stroke: #222; stroke-opacity: 0.18; stroke-linecap: round; stroke-linejoin: round }
      .r { stroke-opacity: 0.10 }
      .b { stroke-opacity: 0.28 }
    ]]></style>
  </defs>

  <!-- rings -->
  <circle class="g r" cx="500" cy="500" r="120"/>
  <circle class="g r" cx="500" cy="500" r="200"/>
  <circle class="g r" cx="500" cy="500" r="280"/>
  <circle class="g r" cx="500" cy="500" r="360"/>
  <circle class="g r" cx="500" cy="500" r="440"/>
  <circle class="g"   cx="500" cy="500" r="480"/>

  <!-- spokes (every 30°) -->
  <g class="g">
    <line x1="500" y1="20"  x2="500" y2="980"/>
    <line x1="20"  y1="500" x2="980" y2="500"/>
    <line x1="141" y1="141" x2="859" y2="859"/>
    <line x1="141" y1="859" x2="859" y2="141"/>
    <line x1="500" y1="20"  x2="500" y2="980" transform="rotate(30 500 500)"/>
    <line x1="500" y1="20"  x2="500" y2="980" transform="rotate(60 500 500)"/>
    <line x1="500" y1="20"  x2="500" y2="980" transform="rotate(120 500 500)"/>
    <line x1="500" y1="20"  x2="500" y2="980" transform="rotate(150 500 500)"/>
    <line x1="500" y1="20"  x2="500" y2="980" transform="rotate(210 500 500)"/>
    <line x1="500" y1="20"  x2="500" y2="980" transform="rotate(240 500 500)"/>
  </g>

  <!-- oculus -->
  <circle class="g b" cx="500" cy="500" r="8"/>
</svg>